<svg width="766" height="763" viewBox="0 0 766 763" fill="none" xmlns="http://www.w3.org/2000/svg">
<path d="M366.888 0.0444201C392.638 -0.12258 417.896 0.687822 443.412 4.56282C612.182 30.1948 748.02 173.322 763.958 343.712C781.892 535.43 653.5 714.022 465.34 754.292C443.306 759.008 421.458 760.496 399.126 762.56C319.756 763.404 248.966 749.006 180.33 706.136C78.87 642.766 10.2663 531.044 1.88386 411.42C-12.1153 211.64 125.208 37.0432 322.73 4.59322C337.368 2.18842 352.102 1.04902 366.888 0.0444201ZM369.654 24.4922C264.128 33.241 180.156 68.667 109.458 152.244C-15.5354 300.006 1.41745 526.96 149.872 652.29C223.568 714.506 304.612 738.718 399.126 737.758C426.406 735.306 450.432 732.704 477.126 725.79C645.768 682.12 755.102 520.618 739.338 347.636C728.804 232.044 661.344 129.844 561.658 72.164C500.348 36.6888 440.046 23.9868 369.654 24.4922Z" fill="#7B2CBF"/>
<path d="M369.654 24.4922C440.046 23.9868 500.348 36.6888 561.658 72.164C661.344 129.844 728.804 232.044 739.338 347.636C755.102 520.618 645.768 682.12 477.126 725.79C450.432 732.704 426.406 735.306 399.126 737.758C304.612 738.718 223.568 714.506 149.872 652.29C1.4173 526.96 -15.5355 300.006 109.458 152.244C180.156 68.667 264.128 33.241 369.654 24.4922ZM370.488 90.992C318.576 95.94 272.61 107.47 228.054 136.846C136.812 196.996 84.0439 301.512 94.7419 411.446C103.078 497.13 153.752 578.904 226.402 625.11C220.274 632.416 207.408 645.756 208.464 655.708C209.11 661.8 215.948 665.91 221.744 664.994C229.102 663.83 241.142 644.504 246.7 638.144C298.09 660.066 335.172 672.304 393.75 670.522C410.11 669.108 426.244 667.788 442.322 664.298C585.93 633.138 684.648 499.566 671.748 352.626C664.17 266.324 612.198 186.992 540.67 139.622C545.556 133.388 558.396 119.828 557.444 111.982C556.65 105.456 550.298 100.236 543.7 101.26C534.66 102.662 524.134 119.716 518.304 126.712C479.578 100.9 415.366 89.302 370.488 90.992Z" fill="#E2CFEA"/>
<path d="M370.488 90.992C415.366 89.302 479.578 100.9 518.304 126.712C524.134 119.716 534.66 102.662 543.7 101.26C550.298 100.236 556.65 105.456 557.444 111.982C558.396 119.828 545.556 133.388 540.67 139.622C612.198 186.992 664.17 266.324 671.748 352.626C684.648 499.566 585.93 633.138 442.322 664.298C426.244 667.788 410.11 669.108 393.75 670.522C335.172 672.304 298.09 660.066 246.7 638.144C241.142 644.504 229.102 663.83 221.744 664.994C215.948 665.91 209.11 661.8 208.464 655.708C207.408 645.756 220.274 632.416 226.402 625.11C153.752 578.904 103.078 497.13 94.7421 411.446C84.0441 301.512 136.812 196.996 228.054 136.846C272.61 107.47 318.576 95.94 370.488 90.992ZM372.922 115.506C294.788 121.918 232.378 149.988 180.302 211.464C31.2717 387.388 163.192 650.692 393.75 645.236C468.164 640.284 534.958 607.746 583.97 551.748C680.872 441.03 664.53 276.582 554.974 180.99C503.492 136.07 440.382 115.214 372.922 115.506Z" fill="#7B2CBF"/>
<path d="M380.4 204.106C392.114 203.608 402.384 221.176 408.512 229.248C433.418 262.06 445.848 292.096 446.936 332.726C461.782 322.494 529.57 292.512 544.702 311.424C548.056 340.268 535.872 382.624 524.07 408.258C537.83 409.296 585.998 421.444 591.23 436.002C594.316 444.59 585.296 453.12 580.76 459.368C546.128 507.08 485.578 541.174 425.642 524.384C415.27 521.478 405.708 516.918 395.998 512.36C395.96 527.972 402.646 558.85 385.432 563.51C362.9 564.428 370.456 527.466 370.488 512.36C322.644 538.71 265.176 532.602 221.966 499.254C205.64 486.654 195.808 473.502 183.398 457.438C170.436 440.662 168.502 437.156 189.248 425.316C205.338 416.134 222.56 408.728 241.32 408.258C231.48 386.874 213.736 327.83 222.196 311.37C231.3 293.656 300.656 321.068 319.484 332.726C316.206 289.476 338.084 251.196 364.688 219.014C369.202 213.554 373.672 206.928 380.4 204.106ZM248.388 332.726C247.612 369.302 263.704 407.04 288.838 433.086C312.342 457.438 337.506 466.73 370.488 471.428C371.398 392.388 322.85 346.53 248.388 332.726ZM518.304 332.726C451.156 342.376 399.436 389.102 395.96 458.334C395.77 462.134 394.216 467.928 395.998 471.428C465.942 459.87 505.162 417.704 517.046 346.62C517.494 343.94 520.056 334.822 518.304 332.726ZM383.532 237.782C354.406 262.554 339.118 311.352 345.198 349.268C359.558 362.976 371.52 377.356 379.416 395.646C380.466 398.082 381.052 402.326 383.532 403.596C393.38 380.53 402.626 367.108 420.476 349.268C428.73 318.174 411.236 275.5 393.354 251.078C390.112 246.652 386.346 242.496 383.532 237.782ZM248.388 433.078C233.092 432.37 218.478 438.208 204.894 444.764C232.212 477.232 260.398 505.276 307.376 503.986C322.42 503.798 337.694 500.628 351.144 493.784C297.128 480.928 290.48 466.422 256.052 433.078C253.516 432.462 250.932 432.46 248.388 433.078ZM510.884 433.078C503.838 437.588 499.618 445.366 493.792 451.186C471.53 473.426 446.642 487.506 415.648 493.784C434.756 504.94 448.856 500.004 466.13 503.986C509.914 494.138 532.554 481.694 561.646 444.764C546.766 436.66 527.856 432.158 510.884 433.078Z" fill="#7B2CBF"/>
</svg>
