<svg width="630" height="629" viewBox="0 0 630 629" fill="none" xmlns="http://www.w3.org/2000/svg">
<path d="M419.981 172.166C441.579 162.17 500.813 199.162 497.209 227.458C495.841 238.198 486.445 246.286 475.629 245.73C455.105 244.672 458.019 221.542 429.223 216.638C397.525 212.544 396.451 246.16 374.383 246.658C361.791 246.942 352.057 237.444 352.021 224.898C351.947 198.588 395.293 172.308 419.981 172.166Z" fill="#7B2CBF"/>
<path d="M53.0052 145.018C55.1552 154.95 51.4332 169.96 50.7552 180.374C41.9752 315.368 107.309 437.35 227.081 503.08C332.289 560.82 446.831 557.488 550.991 502.584C557.583 499.11 565.957 492.56 573.559 491.968C527.069 561.49 453.597 609.846 370.839 623.9C201.951 652.578 31.9672 538.258 3.64519 368.158C-8.37101 295.99 9.63599 205.624 53.0052 145.018Z" fill="#7B2CBF"/>
<path d="M53.0049 145.018C57.0889 136.846 69.1309 122.37 75.4489 115.072C144.473 35.3281 244.227 -7.5099 349.441 1.0861C363.549 2.2381 401.191 5.36009 387.335 29.8701C384.221 35.3801 377.425 39.5421 372.959 44.0101C288.179 128.834 307.427 259.772 403.167 326.674C408.057 330.092 413.247 333.134 418.053 336.65C425.833 339.688 433.187 343.446 440.667 347.132C506.913 362.648 519.547 363.412 586.739 331.108C597.273 326.044 618.581 311.974 627.339 326.934C634.003 338.316 622.403 383.376 618.349 397.144C611.591 420.102 590.571 474.336 573.559 491.968C565.957 492.56 557.583 499.11 550.991 502.584C446.831 557.488 332.289 560.82 227.081 503.08C107.309 437.35 41.9749 315.368 50.7549 180.374C51.4329 169.96 55.1549 154.95 53.0049 145.018ZM440.667 347.132C433.187 343.446 425.833 339.688 418.053 336.65C412.207 336.708 406.259 337.298 400.701 339.238C388.889 336.65 381.247 341.392 370.387 345.594C335.999 358.902 295.013 359.462 260.443 346.98C250.165 343.27 241.947 338.108 230.761 341.338C206.819 324.292 173.955 341.532 179.769 372.534C184.339 396.906 209.689 423.222 229.325 436.49C299.121 483.65 394.303 468.484 441.475 397.228C454.383 377.728 453.647 365.51 440.667 347.132Z" fill="#E2CFEA"/>
<path d="M194.501 172.166C250.607 165.272 305.333 233.396 258.415 248.79C238.491 255.328 230.583 228.386 213.817 219.992C180.579 207.276 174.743 244.112 155.145 246.968C143.127 248.72 131.749 238.28 130.265 226.756C126.605 198.314 170.205 175.234 194.501 172.166Z" fill="#7B2CBF"/>
<path d="M440.667 347.132C453.647 365.51 454.383 377.728 441.475 397.228C394.303 468.484 299.121 483.65 229.325 436.49C209.689 423.222 184.339 396.906 179.769 372.534C173.955 341.532 206.819 324.292 230.761 341.338C241.947 338.108 250.165 343.27 260.443 346.98C295.013 359.462 335.999 358.902 370.387 345.594C381.247 341.392 388.889 336.65 400.701 339.238C406.259 337.298 412.207 336.708 418.053 336.65C425.833 339.688 433.187 343.446 440.667 347.132ZM230.761 341.338C222.537 346.232 217.049 354.952 218.997 364.792C221.689 378.382 236.955 382.302 248.161 386.352C290.955 401.822 364.025 403.762 403.843 377.618C420.251 366.846 415.253 348.324 400.701 339.238C388.889 336.65 381.247 341.392 370.387 345.594C335.999 358.902 295.013 359.462 260.443 346.98C250.165 343.27 241.947 338.108 230.761 341.338Z" fill="#7B2CBF"/>
</svg>
